<?xml version="1.0" standalone="no"?>
<!DOCTYPE svg PUBLIC "-//W3C//DTD SVG 20010904//EN"
 "http://www.w3.org/TR/2001/REC-SVG-20010904/DTD/svg10.dtd">
<svg version="1.0" xmlns="http://www.w3.org/2000/svg"
 width="1280.000000pt" height="390.000000pt" viewBox="0 0 1280.000000 390.000000"
 preserveAspectRatio="xMidYMid meet">

<g transform="translate(0.000000,390.000000) scale(0.100000,-0.100000)"
fill="#000000" stroke="none">
<path d="M8900 3425 c-69 -12 -158 -28 -197 -35 l-73 -12 0 -368 0 -368 -52
-7 c-216 -27 -448 -119 -573 -227 -196 -168 -273 -355 -262 -632 9 -227 71
-380 212 -522 144 -146 309 -223 560 -263 l110 -17 3 -292 2 -292 225 0 225 0
2 292 3 292 101 17 c126 20 271 61 349 98 182 86 318 232 391 421 l22 55 179
3 180 3 12 -44 c34 -119 162 -286 285 -370 128 -87 286 -144 466 -170 l95 -13
3 -292 2 -292 225 0 225 0 2 292 3 292 102 17 c289 49 475 142 622 314 47 56
123 205 140 277 33 142 31 341 -5 468 -40 139 -145 292 -262 381 -130 99 -352
183 -539 204 l-63 7 0 404 c0 378 -1 404 -17 404 -10 0 -108 -16 -218 -35
-110 -19 -203 -35 -207 -35 -4 0 -9 -165 -10 -367 l-3 -367 -35 -7 c-19 -3
-66 -12 -105 -19 -163 -30 -346 -107 -464 -196 -116 -87 -220 -239 -257 -376
l-15 -57 -52 -5 c-29 -2 -101 -4 -160 -3 l-109 2 -27 80 c-33 97 -51 132 -106
210 -132 186 -340 299 -655 354 l-95 17 -3 402 -2 402 -28 -1 c-15 -1 -83 -11
-152 -24z m254 -1182 c92 -17 132 -34 198 -80 97 -70 148 -190 148 -353 0
-201 -66 -317 -227 -399 -73 -37 -161 -46 -409 -44 -316 3 -428 28 -532 119
-87 76 -122 170 -122 327 0 204 80 337 237 396 130 49 212 59 428 54 121 -2
231 -10 279 -20z m2549 -2 c105 -26 133 -38 189 -81 89 -68 138 -175 146 -315
13 -253 -107 -421 -333 -466 -75 -15 -542 -24 -570 -11 -11 6 -53 19 -94 31
-135 38 -222 108 -263 209 -20 50 -22 75 -22 202 0 168 15 225 84 302 60 68
134 103 293 137 16 3 132 7 258 9 204 3 238 1 312 -17z"/>
<path d="M965 2691 c-335 -54 -579 -293 -660 -645 -15 -68 -22 -228 -14 -326
36 -413 281 -700 655 -765 291 -51 582 36 758 225 249 269 299 755 115 1111
-94 181 -282 330 -484 384 -69 18 -295 28 -370 16z m244 -407 c144 -42 240
-224 241 -455 0 -227 -71 -387 -205 -457 -67 -35 -195 -38 -266 -5 -95 43
-175 160 -201 290 -16 86 -14 276 5 350 40 153 119 248 237 284 43 13 134 10
189 -7z"/>
<path d="M6475 2691 c-182 -30 -361 -130 -473 -263 -137 -163 -202 -357 -202
-603 0 -335 134 -612 368 -762 165 -105 398 -146 617 -108 389 68 631 367 652
805 13 277 -53 495 -207 679 -84 101 -228 191 -372 231 -82 23 -296 35 -383
21z m294 -426 c124 -68 191 -222 191 -440 0 -184 -45 -319 -134 -403 -64 -61
-109 -77 -211 -76 -96 1 -151 22 -210 82 -93 92 -130 222 -122 432 5 152 23
218 82 307 63 95 147 135 270 130 66 -3 90 -8 134 -32z"/>
<path d="M2223 2323 c4 -303 7 -346 26 -417 39 -147 116 -243 245 -307 143
-70 353 -97 609 -75 l97 8 0 -276 0 -276 230 0 230 0 0 840 0 840 -230 0 -230
0 0 -370 c0 -344 -1 -371 -17 -378 -32 -13 -305 -8 -353 6 -64 20 -115 74
-129 140 -7 32 -11 161 -11 327 l0 275 -236 0 -236 0 5 -337z"/>
<path d="M4120 1820 l0 -840 235 0 235 0 0 335 c0 184 4 335 8 335 17 0 201
-180 305 -300 61 -69 151 -180 201 -247 l91 -123 268 0 268 0 -52 78 c-189
281 -434 570 -643 758 l-78 71 222 219 c122 120 294 294 382 387 l160 167
-284 0 -283 0 -112 -123 c-61 -67 -188 -201 -281 -297 l-171 -175 -1 298 0
297 -235 0 -235 0 0 -840z"/>
</g>
</svg>
